<svg width="256" height="256" viewBox="0 0 256 256" fill="none" xmlns="http://www.w3.org/2000/svg">
<mask id="mask0_2_44" style="mask-type:alpha" maskUnits="userSpaceOnUse" x="50" y="27" width="116" height="143">
<path d="M110.529 169.041C128.823 169.041 142.503 163.41 151.57 152.147C160.796 140.885 165.409 125.895 165.409 107.177C165.409 96.2316 164.137 85.921 161.592 76.2448C159.046 66.5686 155.229 58.0821 150.138 50.7854C145.207 43.3299 139.003 37.5401 131.527 33.4158C124.05 29.2916 115.302 27.2294 105.28 27.2294C87.3047 27.2294 73.704 32.7813 64.4778 43.8851C55.2515 54.9889 50.6384 69.8204 50.6384 88.3797C50.6384 99.4834 51.8315 109.873 54.2176 119.55C56.7627 129.226 60.5009 137.792 65.4322 145.247C70.5225 152.702 76.8059 158.572 84.2823 162.854C91.7587 166.979 100.508 169.041 110.529 169.041Z" fill="white"/>
</mask>
<g mask="url(#mask0_2_44)">
<ellipse cx="107.46" cy="57.9763" rx="178.5" ry="138" fill="black"/>
<ellipse cx="107.46" cy="156.976" rx="178.5" ry="84" fill="#E5101D"/>
<ellipse cx="107.46" cy="205.976" rx="178.5" ry="84" fill="#FFC715"/>
</g>
<path d="M200.424 244.472C188.136 244.472 177.64 242.68 168.936 239.096C160.403 235.683 152.04 231.075 143.848 225.272C137.192 220.493 130.877 215.885 124.904 211.448C118.931 207.181 111.763 201.635 103.4 194.808C97.4266 189.859 91.88 186.275 86.76 184.056C81.8106 182.008 77.544 180.131 73.96 178.424C66.9626 175.181 60.3066 171.256 53.992 166.648C47.6773 162.04 42.0453 156.579 37.096 150.264C32.3173 143.949 28.4773 136.696 25.576 128.504C22.8453 120.141 21.48 110.755 21.48 100.344C21.48 88.7387 23.3573 77.6453 27.112 67.064C30.8666 56.312 36.4133 46.7547 43.752 38.392C51.0906 30.0293 60.2213 23.3733 71.144 18.424C82.0666 13.4747 94.6107 11 108.776 11C120.04 11 130.792 13.048 141.032 17.144C151.272 21.0693 160.317 26.7867 168.168 34.296C176.019 41.6347 182.248 50.5093 186.856 60.92C191.464 71.16 193.768 82.5947 193.768 95.224C193.768 108.195 191.379 120.568 186.6 132.344C181.992 144.12 175.08 154.36 165.864 163.064C156.648 171.768 145.213 177.912 131.56 181.496C130.195 181.837 129.512 182.435 129.512 183.288C129.512 184.141 129.853 184.909 130.536 185.592C135.485 190.883 140.52 195.747 145.64 200.184C150.931 204.792 156.733 209.4 163.048 214.008C171.581 220.152 179.517 224.333 186.856 226.552C194.365 228.941 203.069 230.136 212.968 230.136C216.04 230.136 218.856 229.965 221.416 229.624C224.147 229.283 226.109 228.856 227.304 228.344C228.157 228.003 229.011 227.747 229.864 227.576C230.717 227.405 231.485 227.32 232.168 227.32C234.045 227.32 234.984 228.003 234.984 229.368C234.984 230.904 234.643 232.099 233.96 232.952C233.448 233.805 232.253 234.829 230.376 236.024C225.597 238.925 220.563 241.059 215.272 242.424C210.152 243.789 205.203 244.472 200.424 244.472ZM110.312 174.328C129.939 174.328 144.616 168.269 154.344 156.152C164.243 144.035 169.192 127.907 169.192 107.768C169.192 95.992 167.827 84.8987 165.096 74.488C162.365 64.0773 158.269 54.9467 152.808 47.096C147.517 39.0747 140.861 32.8453 132.84 28.408C124.819 23.9707 115.432 21.752 104.68 21.752C85.3946 21.752 70.8026 27.7253 60.904 39.672C51.0053 51.6187 46.056 67.576 46.056 87.544C46.056 99.4907 47.336 110.669 49.896 121.08C52.6266 131.491 56.6373 140.707 61.928 148.728C67.3893 156.749 74.1306 163.064 82.152 167.672C90.1733 172.109 99.56 174.328 110.312 174.328Z" fill="black"/>
</svg>
